<svg xmlns="http://www.w3.org/2000/svg" width="116" height="44.242" viewBox="0 0 116 44.242"><path fill="#fff" d="M115.4 3.07v37.952h-1.01V3.07z"/><g><path d="M76.19 26.946v8.74h9.018c.373 0 .73-.02 1.073-.06a5.236 5.236 0 0 1-2.153 2.1c-.932.483-2.045.725-3.34.725h-9.016V26.947h4.42zm0-15.984v8.065h8.474c.413 0 .812-.02 1.19-.067a4.43 4.43 0 0 1-1.106 1.406c-1.104.95-2.608 1.426-4.507 1.426h-8.47v-10.83h4.42zm14.907 16.4c-.202-.275-.41-.54-.628-.784-.474-.692-1.123-1.248-1.947-1.668-.53-.313-1-.544-1.494-.735.897-.345 1.734-.89 2.51-1.63.78-.76 1.4-1.685 1.866-2.774.484-1.104.727-2.305.727-3.6 0-2.09-.468-3.91-1.4-5.465-.916-1.57-2.245-2.772-3.99-3.603-1.728-.845-3.73-1.267-6.01-1.267H70.44V3.07h14.715c2.28 0 4.284.422 6.012 1.27 1.74.83 3.07 2.03 3.986 3.6.934 1.556 1.4 3.378 1.4 5.465 0 1.296-.242 2.498-.725 3.6-.465 1.09-1.087 2.014-1.865 2.774-.776.742-1.614 1.286-2.514 1.63 1.623.622 2.978 1.683 4.066 3.187 1.09 1.504 1.633 3.36 1.633 5.57 0 2.28-.485 4.224-1.45 5.83-.953 1.588-2.3 2.797-4.042 3.624-.458.22-.935.407-1.428.563.39-.435.74-.908 1.05-1.422.964-1.608 1.448-3.55 1.448-5.83 0-2.208-.543-4.065-1.63-5.568zM23.97 5.652c.574.415 1.135.876 1.677 1.382l-3.68 3.626c-.76-.742-1.57-1.32-2.432-1.734a10.18 10.18 0 0 0-2.696-.907c-.932-.19-1.962-.285-3.084-.285-1.107 0-2.097.15-2.97.448a5.32 5.32 0 0 1 .567-1.283c.55-.898 1.343-1.6 2.38-2.1 1.038-.5 2.273-.752 3.708-.752 1.12 0 2.15.096 3.083.287a10.1 10.1 0 0 1 2.693.907c.257.123.51.26.754.41zM21.11 31.75c.122-.474.184-.984.184-1.53 0-1.71-.5-3.013-1.5-3.91a4.384 4.384 0 0 0-1.583-1.01c-.585-.243-1.43-.44-2.536-.597l-4.458-.622c-3.074-.43-5.467-1.44-7.176-3.03-1.83-1.71-2.746-4.11-2.746-7.203 0-2.192.51-4.126 1.53-5.802.863-1.42 2.042-2.567 3.54-3.44-.922 1.618-1.385 3.47-1.385 5.56 0 3.092.914 5.493 2.746 7.202 1.71 1.59 4.1 2.6 7.176 3.03l4.456.62c1.104.16 1.953.358 2.54.6.603.222 1.13.56 1.58 1.01 1 .897 1.504 2.2 1.504 3.91-.004 1.832-.693 3.256-2.075 4.274-.524.385-1.123.7-1.797.94zM0 36.18l3.708-3.66c1.774 1.767 3.716 3.037 5.83 3.81 2.144.76 4.656 1.14 7.54 1.14 1.986 0 3.8-.242 5.44-.725a13.653 13.653 0 0 0 3.1-1.37 9.97 9.97 0 0 1-2.483 2.852c-1.226.967-2.66 1.703-4.3 2.202-1.64.482-3.453.724-5.44.726-2.885 0-5.397-.38-7.54-1.14C3.73 39.236 1.78 37.956 0 36.18zM35.37 3.07h4.422v24.768c0 1.656.318 3.11.958 4.352.125.24.26.466.403.685a7.45 7.45 0 0 1-2.104-.783 6.844 6.844 0 0 1-2.72-2.85c-.64-1.243-.96-2.695-.96-4.352V3.07zm25.794 25.027c0 2.555-.587 4.827-1.76 6.814-1.176 1.985-2.798 3.524-4.872 4.61-2.053 1.09-4.37 1.634-6.942 1.634-2.556 0-4.862-.544-6.917-1.634a12.195 12.195 0 0 1-3.136-2.35c1.716.69 3.594 1.033 5.632 1.033 2.57 0 4.887-.543 6.94-1.633 2.072-1.085 3.697-2.623 4.872-4.61 1.174-1.984 1.762-4.256 1.762-6.81V3.07h4.42v25.027z" fill="#fff"/></g></svg>
